<?xml version="1.0" encoding="utf-8"?>
<!-- Generator: Adobe Illustrator 21.0.0, SVG Export Plug-In . SVG Version: 6.00 Build 0)  -->
<svg version="1.1" id="Layer_1" xmlns="http://www.w3.org/2000/svg" xmlns:xlink="http://www.w3.org/1999/xlink" x="0px" y="0px"
	 viewBox="0 0 211 163" style="enable-background:new 0 0 211 163;" xml:space="preserve">
<style type="text/css">
	.st0{fill:#FFFFFF;}
</style>
<symbol  id="New_Symbol_5" viewBox="-235.2 -235.2 470.5 470.5">
	<path class="st0" d="M204.8-235.2h-409.5c-16.8,0-30.5,13.7-30.5,30.5v409.5c0,16.8,13.7,30.5,30.5,30.5h409.5
		c16.8,0,30.5-13.7,30.5-30.5v-409.5C235.2-221.6,221.6-235.2,204.8-235.2z M-204.8,214.2c-5.2,0-9.5-4.3-9.5-9.5v-409.5
		c0-5.2,4.3-9.5,9.5-9.5h409.5c5.2,0,9.5,4.3,9.5,9.5v409.5c0,5.2-4.3,9.5-9.5,9.5H-204.8z"/>
	<g>
		<path class="st0" d="M-143.4,102.7c8-8.1,15.4-15.7,23.1-23.1c14-13.5,35.8-10.5,45.5,6c6.6,11.2,4.9,25.1-4.4,34.8
			c-6.5,6.7-13.1,13.2-19.7,19.8c-1,1-2,2.2-3.5,3.8c16.3,3.7,31.1,1.7,44.8-6.6c20.3-12.3,30.8-35.7,26.6-59.5
			c-0.5-3,0.1-4.8,2.2-6.9C-6.1,48.4,16.3,25.7,38.9,3.1c32.4-32.4,65-64.7,97.4-97.2c16.9-16.9,10.1-44.5-12.4-50.4
			c-11.2-2.9-21.1-0.1-29.4,8.2C65.2-107.1,35.9-77.8,6.6-48.5C-8.2-33.7-22.9-18.9-37.7-4c-10.9,10.9-22,21.8-32.9,32.8
			c-2.1,2.2-4.1,2.9-7.3,2.4C-119.2,24-154.7,62.2-143.4,102.7z M116-127.8c6.6,0,12.2,5.6,12,12.1c-0.1,6.4-5.6,11.7-12,11.7
			c-6.6,0-11.8-5.1-11.9-11.6C104-122.3,109.4-127.8,116-127.8z"/>
		<path class="st0" d="M-16.4-38.5c3.3-3.3,6.5-6.5,9.8-9.8c-0.5-0.6-1.1-1.5-1.8-2.2c-28.9-29-57.8-58-86.9-86.8
			c-15.3-15.2-40-10.6-48.5,8.6c-5.1,11.4-2.6,24.2,6.5,33.4c25.7,25.8,51.5,51.5,77.2,77.4c3.9,3.9,7.2,8.4,10.5,12.3
			c4.8-4.3,8.2-7.2,12.1-10.7c-9.4-9.2-18.3-17.8-27-26.5c-19.1-19-38.2-38.1-57.3-57.2c-1-1-2.5-1.9-2.8-3.1
			c-0.5-1.7-0.8-4.5,0.2-5.2c1.3-1,3.9-1,5.6-0.5c1.5,0.4,2.5,2.2,3.8,3.4c26.9,26.9,53.7,53.7,80.6,80.6c0.8,0.8,1.6,1.5,2.4,2.2
			c3-3.2,5.9-6.4,9.2-9.9c-7.7-7.6-15.9-15.7-24-23.7c-19.9-19.8-39.7-39.7-59.5-59.5c-0.8-0.8-2-1.5-2.2-2.3
			c-0.4-2-0.2-4.1-0.2-6.2c2.1,0.1,4.9-0.7,6.1,0.3c5,4.4,9.6,9.3,14.3,14C-65.2-87-42-63.9-18.9-40.7
			C-18.1-39.9-17.1-39.1-16.4-38.5z"/>
		<path class="st0" d="M131.9,146.4c5-5,9.5-9.6,14.5-14.6c-12.3-15.7-21.7-34.3-41.8-42.6c-1.9-0.8-3.5-2.6-5-4.1
			C78.7,64.3,57.9,43.4,37.1,22.6c-0.7-0.7-1.5-1.5-2.3-2.2c-4.6,4.8-9.1,9.5-13.8,14.5c0.3,0.3,1,1.3,1.8,2.1
			c20.9,20.9,41.9,41.9,62.8,62.8c1.6,1.6,3.3,3.4,4.2,5.5c5.2,11.1,12.9,19.9,23,26.9C119.2,136.6,125.4,141.5,131.9,146.4z"/>
	</g>
</symbol>
<use xlink:href="#New_Symbol_5"  width="470.5" height="470.5" x="-235.2" y="-235.2" transform="matrix(0.2891 0 0 -0.2891 83 81)" style="overflow:visible;"/>
</svg>
