<?xml version="1.0" encoding="utf-8"?>
<!-- Generator: Adobe Illustrator 21.0.0, SVG Export Plug-In . SVG Version: 6.00 Build 0)  -->
<svg version="1.1" id="Layer_1" xmlns="http://www.w3.org/2000/svg" xmlns:xlink="http://www.w3.org/1999/xlink" x="0px" y="0px"
	 viewBox="0 0 211 163" style="enable-background:new 0 0 211 163;" xml:space="preserve">
<style type="text/css">
	.st0{fill:none;}
	.st1{fill:#FFFFFF;}
</style>
<symbol  id="Arrow_26" viewBox="-22.9 -13.1 42.7 26.3">
	<rect x="-22.9" y="-13.1" class="st0" width="42.7" height="26.3"/>
	<g>
		<path class="st1" d="M-22.2-6.3h18.6c0.4,0,0.7-0.3,0.7-0.7v-5c0-0.5,0.6-0.8,1-0.6l20.8,12c0.4,0.3,0.4,0.9,0,1.2l-20.8,12
			c-0.4,0.3-1-0.1-1-0.6V7c0-0.4-0.3-0.7-0.7-0.7h-18.6c-0.4,0-0.7-0.3-0.7-0.7V-5.7C-22.9-6-22.6-6.3-22.2-6.3z"/>
	</g>
</symbol>
<symbol  id="New_Symbol_4" viewBox="-235.2 -235.2 470.5 470.5">
	<path class="st1" d="M18.8,128.7c-57.3,3-112.6-14.5-157.4-49.6l-25.7,28.6L-199.5-0.4l111.2,23.6l-24.8,27.6
		c37.2,28.3,82.8,42.4,130,39.9c52.7-2.8,101.3-26,136.7-65.3l28.2,25.4C139.6,97.7,81.7,125.4,18.8,128.7z"/>
	<path class="st1" d="M203.8,7.1L92.7-17.1l25-27.5C80.6-73.1,35.1-87.4-12.1-85.1c-52.8,2.5-101.4,25.5-137,64.6l-28.1-25.6
		c42.4-46.7,100.4-74,163.3-77c3.9-0.2,7.7-0.3,11.5-0.3c53.2,0,104,17.7,145.7,50.6l25.8-28.4L203.8,7.1z"/>
	<path class="st1" d="M204.8-235.2h-409.5c-16.8,0-30.5,13.7-30.5,30.5v409.5c0,16.8,13.7,30.5,30.5,30.5h409.5
		c16.8,0,30.5-13.7,30.5-30.5v-409.5C235.2-221.6,221.6-235.2,204.8-235.2z M-204.8,214.2c-5.2,0-9.5-4.3-9.5-9.5v-409.5
		c0-5.2,4.3-9.5,9.5-9.5h409.5c5.2,0,9.5,4.3,9.5,9.5v409.5c0,5.2-4.3,9.5-9.5,9.5H-204.8z"/>
</symbol>
<use xlink:href="#New_Symbol_4"  width="470.5" height="470.5" x="-235.2" y="-235.2" transform="matrix(0.2891 0 0 -0.2891 75.8 81)" style="overflow:visible;"/>
<use xlink:href="#Arrow_26"  width="42.7" height="26.3" x="-22.9" y="-13.1" transform="matrix(1.1142 0 0 -1.1212 180.2266 84.4)" style="overflow:visible;"/>
</svg>
