<?xml version="1.0" encoding="utf-8"?>
<!-- Generator: Adobe Illustrator 21.0.0, SVG Export Plug-In . SVG Version: 6.00 Build 0)  -->
<svg version="1.1" id="Layer_1" xmlns="http://www.w3.org/2000/svg" xmlns:xlink="http://www.w3.org/1999/xlink" x="0px" y="0px"
	 viewBox="0 0 211 163" style="enable-background:new 0 0 211 163;" xml:space="preserve">
<style type="text/css">
	.st0{fill:none;}
	.st1{fill:#FFFFFF;}
</style>
<symbol  id="Arrow_26" viewBox="-22.9 -13.1 42.7 26.3">
	<rect x="-22.9" y="-13.1" class="st0" width="42.7" height="26.3"/>
	<g>
		<path class="st1" d="M-22.2-6.3h18.6c0.4,0,0.7-0.3,0.7-0.7v-5c0-0.5,0.6-0.8,1-0.6l20.8,12c0.4,0.3,0.4,0.9,0,1.2l-20.8,12
			c-0.4,0.3-1-0.1-1-0.6V7c0-0.4-0.3-0.7-0.7-0.7h-18.6c-0.4,0-0.7-0.3-0.7-0.7V-5.7C-22.9-6-22.6-6.3-22.2-6.3z"/>
	</g>
</symbol>
<symbol  id="New_Symbol_2" viewBox="-235.2 -235.2 470.5 470.5">
	<g>
		<path class="st1" d="M-154.6-45.2c0.6,2.7,1.2,5.5,1.9,8.2c6.1,24.1,25.9,41.4,50.5,43.9c6,0.6,12.1,0.4,18.2,0.4
			c9.8,0,19.6-0.1,29.4-0.2c0.5,0,1-0.1,1.7-0.2c0.5-7.3,2-14.3,4.9-21c2.9-6.7,7.2-12.4,12.2-17.6C-73.2-46-87.9-97.4-85.1-136
			c-0.7,0-1.1-0.1-1.5-0.1c-21.4,1.2-42.2,5.5-62.7,11.7c-1.7,0.5-3.5,0.9-5.3,1.4C-154.6-105-154.6-63.3-154.6-45.2z"/>
		<path class="st1" d="M3.8-40.1c7.8,0,15.6,0.3,23.4-0.1c13.5-0.7,25.2-5.9,35.2-15c9.3-8.4,15.2-42.3,17.9-54.5
			c0.9-4.3,1.2-8.7,1.2-13.1c0.1-14.7,0-29.4,0.1-44.1c0-2-0.7-2.9-2.4-3.7C63.6-177.8,47-181.1,30-182.9c-28-2.9-55.5,0-82.7,6.7
			c-6.6,1.6-13.1,3.7-19.7,5.4c-1.5,0.4-1.9,1.2-1.9,2.6c0,15.5-0.3,31.1,0.1,46.6c0.6,23.2,11.4,64,31.7,75.1
			c8.7,4.8,18.2,6.6,28.1,6.6c6.1,0,12.1,0,18.2,0C3.8-39.9,3.8-40,3.8-40.1z"/>
		<path class="st1" d="M43.4-32c2.7,3.6,5.5,7,8,10.6c5.2,7.7,7.9,16.4,8.7,25.6c0.2,2.6,1,3.1,3.4,3.1C76.6,7.2,89.7,7.6,102.8,7
			c15.3-0.6,28.2-7.1,38.6-18.2c11.2-11.9,16.1-26.2,16-42.4c-0.1-14.1-0.1-51.8,0-65.9c0-2-0.5-3.1-2.4-3.7
			c-8.6-2.9-17.1-6.3-25.9-8.6c-11-2.9-22.4-3.9-33.8-4.6c-2.2-0.1-2.9,0.3-2.9,2.6c0.1,9-0.4,17.2-1.7,27
			c-1.4,11.2-7.4,44.4-14.7,53.1C67.4-43.3,56.4-36.2,43.4-32z"/>
		<path class="st1" d="M3.8,54.7c25.4-0.1,45.6-20.4,45.5-45.8C49.2-16.5,28.7-36.8,3.5-36.7c-25.2,0.2-45.7,20.8-45.5,46
			C-41.8,34.5-21.4,54.8,3.8,54.7z"/>
		<path class="st1" d="M-74.4,10.7c-21.4-0.8-39.9,12.6-46,32.4c-6,19.7,2,41,19.6,51.9c23.1,14.3,53,5.7,65.1-18.7
			c3.2-6.4,4.7-13.1,4.6-20.2c0-1.2-0.6-2.9-1.5-3.6c-10.3-8.7-16.7-19.6-19.4-32.7c-0.3-1.6-1.1-2.5-2.5-3.4
			C-61,12.7-68.1,10.8-74.4,10.7z"/>
		<path class="st1" d="M78.4,102c22.8,0,41.9-15.7,46-36.9c4.2-22.1-7.8-43.5-29.1-51.6C84,9.3,72.8,9.8,61.7,14.1
			c-1.7,0.7-1.9,1.9-2.1,3.3c-1.4,9.7-5,18.6-11.4,26.1C44.6,48,40,51.7,35.7,55.5c-1.3,1.2-2,2.1-1.8,3.9
			c1.4,15.3,8.4,27.2,21.3,35.6C62.5,99.7,70.6,101.9,78.4,102z"/>
	</g>
	<path class="st1" d="M107.4,188.9l-1.7-0.7c-18.4-8.1-37.5-19.9-56.8-35c-18.1-14.2-33.3-29-45.3-44l-1.5,2.7
		c-7.4,12.7-14.1,18.8-20.7,18.8c-7.1,0-14.8-3.4-23.1-10.1l-3.8-3.1l4.7-1.3c4.2-1.1,8-3.4,11.4-6.8c3.6-3.6,7.5-9.2,11.7-16.8
		l3-5.4c3.1-5.9,5.1-10.1,6-12.6l1.1-3.1l2.7,2C-2.4,74.8,2,77.5,8.5,81l8.7,4.5l0.4,0.6c9.8,16.1,24.3,33.6,43.1,52.1
		c18.7,18.5,36,32.4,51.2,41.3l2.7,1.6L107.4,188.9z"/>
	<path class="st1" d="M204.8-235.2h-409.5c-16.8,0-30.5,13.7-30.5,30.5v409.5c0,16.8,13.7,30.5,30.5,30.5h409.5
		c16.8,0,30.5-13.7,30.5-30.5v-409.5C235.2-221.6,221.6-235.2,204.8-235.2z M-204.8,214.2c-5.2,0-9.5-4.3-9.5-9.5v-409.5
		c0-5.2,4.3-9.5,9.5-9.5h409.5c5.2,0,9.5,4.3,9.5,9.5v409.5c0,5.2-4.3,9.5-9.5,9.5H-204.8z"/>
</symbol>
<use xlink:href="#Arrow_26"  width="42.7" height="26.3" x="-22.9" y="-13.1" transform="matrix(1.1142 0 0 -1.1212 177.8266 83.6444)" style="overflow:visible;"/>
<use xlink:href="#New_Symbol_2"  width="470.5" height="470.5" id="XMLID_1_" x="-235.2" y="-235.2" transform="matrix(0.2891 0 0 -0.2891 77.5556 81)" style="overflow:visible;"/>
</svg>
