<?xml version="1.0" encoding="utf-8"?>
<!-- Generator: Adobe Illustrator 21.0.0, SVG Export Plug-In . SVG Version: 6.00 Build 0)  -->
<svg version="1.1" id="Layer_1" xmlns="http://www.w3.org/2000/svg" xmlns:xlink="http://www.w3.org/1999/xlink" x="0px" y="0px"
	 viewBox="0 0 211 163" style="enable-background:new 0 0 211 163;" xml:space="preserve">
<style type="text/css">
	.st0{fill:none;}
	.st1{fill:#FFFFFF;}
</style>
<symbol  id="Arrow_26" viewBox="-22.9 -13.1 42.7 26.3">
	<rect x="-22.9" y="-13.1" class="st0" width="42.7" height="26.3"/>
	<g>
		<path class="st1" d="M-22.2-6.3h18.6c0.4,0,0.7-0.3,0.7-0.7v-5c0-0.5,0.6-0.8,1-0.6l20.8,12c0.4,0.3,0.4,0.9,0,1.2l-20.8,12
			c-0.4,0.3-1-0.1-1-0.6V7c0-0.4-0.3-0.7-0.7-0.7h-18.6c-0.4,0-0.7-0.3-0.7-0.7V-5.7C-22.9-6-22.6-6.3-22.2-6.3z"/>
	</g>
</symbol>
<symbol  id="New_Symbol_1" viewBox="-235.2 -235.2 470.5 470.5">
	<g>
		<path class="st1" d="M101.5-47c0,1.8-0.1,3.6-0.3,5.7c-0.1,1-0.2,2.1-0.2,3.2l0,0.8l-0.7-0.4c-9.8-5.9-13.9-13.1-13.5-24.1
			c0.6-18.5,0.4-37.4,0.3-55.6c0-6.2-0.1-12.5-0.1-18.7c0-10.8-2.7-13.6-13.2-13.6c-69.1-0.1-136.4-0.1-200,0
			c-12.2,0-14.8,2.7-14.8,15c0,70,0,139.9,0,209.9c0,2.2,0.1,4.3,0.3,6.4c0.1,0.8,0.1,1.6,0.1,2.3c0.4,0.1,0.7,0.2,0.9,0.3
			c0.3,0.1,0.5,0.2,0.5,0.2c3.4,0,6.8,0.1,10.2,0.1c6.7,0.1,13.5,0.1,20.3,0.3c16.8,0.5,26.5,10.2,26.6,26.8c0.1,8.2,0,16.6,0,24.7
			c0,3.6,0,7.1,0,10.7c0.7,0.1,1.2,0.2,1.8,0.3c1.1,0.2,2.1,0.4,2.9,0.4l20.7,0c43.2,0.1,87.9,0.1,131.8,0c8.9,0,11.9-3.1,11.9-12.1
			c0-12,0-24.2-0.1-36c0-6.8-0.1-13.6-0.1-20.5c0-9.7,0-19.4,0-29.7l0-15.9l0.8,0.6c9,7.2,14.6,12.1,14.2,22.7
			c-0.5,16.9-0.4,34.2-0.4,50.9c0,8.3,0.1,16.9,0.1,25.3c-0.1,20-9.2,29.3-28.8,29.3c-48.1,0.1-104.8,0.2-161.5-0.2
			c-3.9,0-8.8-2.2-11.7-5.3c-16.3-16.8-32.7-34.4-50.2-53.7c-2.6-2.9-4.5-7.5-4.6-11.3c-0.4-26.6-0.4-53.6-0.4-79.8l0-4.4
			c0-49.6,0.1-98.2,0.2-143.3c0-19.4,9.3-28.8,28.3-28.9c35.9-0.1,72.3-0.1,108.9-0.1c30.3,0,60.8,0,91.2,0.1
			c19.1,0,28.5,9.4,28.6,28.7c0.1,24.6,0.1,49.6,0.1,73.8L101.5-47z M-96.7,109.8c0.1-6.5-3.3-10.1-9.8-10.3
			c-7.4-0.3-14.9-0.2-22.8-0.2c-3.2,0-6.6,0.1-10.1,0.1l42.7,46.6c0-3.8,0-7.4,0-10.9C-96.8,126.3-96.8,118-96.7,109.8z"/>
		<path class="st1" d="M-6.5-102.1C-5.3-90-4.4-78.7-2.8-67.5c0.3,2.3,2.4,4.7,4.3,6.5C45.9-16.4,90.4,28.1,135,72.5
			c8.4,8.3,14.4,8.2,22.9-0.2c3.2-3.1,6.4-6.3,9.5-9.5c10.1-10.1,10.2-15.6,0.2-25.5C155,24.7,142.2,12.2,129.6-0.4
			c-27.2-27.2-55.6-53.4-81-82.3C33.2-100.3,15.3-102.1-6.5-102.1z M125.2,6.5c-8.1,8.3-14.6,15-22.1,22.7
			c-5.3-5.7-10.8-11.9-16.6-17.8C63-12.3,40-36.5,15.6-59.2C5.1-68.9,4.5-79.8,4.5-92c14.2-0.9,25.9,2.1,35.1,13.7
			c7.3,9.3,16.6,17.1,25.1,25.4C85-32.8,105.5-12.8,125.2,6.5z"/>
		<path class="st1" d="M45.4,66c-6.8,4.7-59.7,5-75.7,4.9c-11.4,0-68.5-0.4-74.3-5l-5.6-4.5H51.9L45.4,66z"/>
		<path class="st1" d="M22-2.6c-9.7,8.5-115.8,8.6-126.2,0l-2.2-1.8H24L22-2.6z"/>
		<path class="st1" d="M-111.8,35.7l7.2-4.6c6.6-4.2,61.2-4.5,75.1-4.5c0.5,0,0.9,0,1.3,0c16.2,0,69.6,0.4,74.8,4.7l5.4,4.4H-111.8z
			"/>
		<path class="st1" d="M2.7-34.5c0.1,0.1,0.3,0.2,0.4,0.2H2.5l-1,2c-1-0.7-4.5-1.4-10.2-2h-81.7c-5.1,0.6-8.3,1.3-9.3,2.1l-1-2.1
			h-0.5c0.1-0.1,0.2-0.1,0.4-0.2l-1.8-3.8c6.1-4.2,38.8-2.7,52-2.7c0.9,0,1.6,0,2.3,0c7.9,0,47.3-1.6,52.8,2.8L2.7-34.5z"/>
		<path class="st1" d="M-16.2-69.1c-0.3,0.7-0.7,1.2-1.3,1.5l-0.1,0c-0.2,0.1-0.5,0.2-0.8,0.2c-0.3,0-0.9,0-1.4-0.2h-81.3l-2.1-0.1
			l-0.2-1.1c-0.2-0.3-0.5-0.8-0.5-1.4l-0.3-1.9l1.8-0.8c0.4-0.2,0.9-0.4,1.4-0.7c1.3-0.7,2.8-1.5,4.6-1.5
			c14.1-0.1,24.9-0.1,35.9-0.1c11.1,0,22.3,0,37,0.1c1.9,0,3.4,1,4.8,1.9c0.5,0.3,0.9,0.6,1.4,0.8l2,1L-16.2-69.1z"/>
		<path class="st1" d="M-20-91.8h-83.3l-1-6.2l1.9-0.7c0.4-0.1,0.8-0.3,1.2-0.6c1.2-0.6,2.6-1.3,4.2-1.3c13.2-0.1,24.5-0.1,35.4-0.1
			c11.8,0,23.2,0,36,0.1c1.7,0,3.1,0.9,4.4,1.6c0.4,0.3,0.8,0.5,1.2,0.7l2.1,1L-20-91.8z"/>
	</g>
	<path class="st1" d="M204.8-235.2h-409.5c-16.8,0-30.5,13.7-30.5,30.5v409.5c0,16.8,13.7,30.5,30.5,30.5h409.5
		c16.8,0,30.5-13.7,30.5-30.5v-409.5C235.2-221.6,221.6-235.2,204.8-235.2z M-204.8,214.2c-5.2,0-9.5-4.3-9.5-9.5v-409.5
		c0-5.2,4.3-9.5,9.5-9.5h409.5c5.2,0,9.5,4.3,9.5,9.5v409.5c0,5.2-4.3,9.5-9.5,9.5H-204.8z"/>
</symbol>
<use xlink:href="#Arrow_26"  width="42.7" height="26.3" x="-22.9" y="-13.1" transform="matrix(1.1142 0 0 -1.1212 178.1377 83.6444)" style="overflow:visible;"/>
<use xlink:href="#New_Symbol_1"  width="470.5" height="470.5" x="-235.2" y="-235.2" transform="matrix(0.2891 0 0 -0.2891 77.1111 81)" style="overflow:visible;"/>
</svg>
