<?xml version="1.0" encoding="utf-8"?>
<!-- Generator: Adobe Illustrator 21.0.0, SVG Export Plug-In . SVG Version: 6.00 Build 0)  -->
<svg version="1.1" id="Layer_1" xmlns="http://www.w3.org/2000/svg" xmlns:xlink="http://www.w3.org/1999/xlink" x="0px" y="0px"
	 viewBox="0 0 211 163" style="enable-background:new 0 0 211 163;" xml:space="preserve">
<style type="text/css">
	.st0{fill:none;}
	.st1{fill:#FFFFFF;}
</style>
<symbol  id="Arrow_26" viewBox="-22.9 -13.1 42.7 26.3">
	<rect x="-22.9" y="-13.1" class="st0" width="42.7" height="26.3"/>
	<g>
		<path class="st1" d="M-22.2-6.3h18.6c0.4,0,0.7-0.3,0.7-0.7v-5c0-0.5,0.6-0.8,1-0.6l20.8,12c0.4,0.3,0.4,0.9,0,1.2l-20.8,12
			c-0.4,0.3-1-0.1-1-0.6V7c0-0.4-0.3-0.7-0.7-0.7h-18.6c-0.4,0-0.7-0.3-0.7-0.7V-5.7C-22.9-6-22.6-6.3-22.2-6.3z"/>
	</g>
</symbol>
<symbol  id="New_Symbol_3" viewBox="-235.2 -235.2 470.5 470.5">
	<g>
		<path class="st1" d="M-139.9-39.5c6.2,0,12.3,0.3,18.5-0.1c10.7-0.5,19.9-4.7,27.8-11.8c7.3-6.6,12-33.4,14.1-43
			c0.7-3.4,0.9-6.9,1-10.4c0.1-11.6,0-23.2,0.1-34.8c0-1.6-0.5-2.3-1.9-2.9c-12.4-5.7-25.5-8.3-38.9-9.7c-22.1-2.3-43.8,0-65.3,5.3
			c-5.2,1.3-10.3,2.9-15.5,4.3c-1.2,0.3-1.5,0.9-1.5,2.1c0,12.3-0.2,24.5,0.1,36.8c0.5,18.3,9,50.6,25.1,59.3
			c6.9,3.8,14.4,5.2,22.2,5.2c4.8,0,9.6,0,14.4,0C-139.9-39.4-139.9-39.5-139.9-39.5z"/>
		<path class="st1" d="M-140,35.3c20.1-0.1,36-16.1,36-36.2c-0.1-20-16.3-36.1-36.2-36c-19.9,0.1-36.1,16.5-35.9,36.3
			C-176,19.4-159.8,35.4-140,35.3z"/>
	</g>
	<g>
		<path class="st1" d="M3.2,146.7c4,0,8,0.2,11.9,0c6.9-0.3,12.8-3,17.9-7.6c4.7-4.3,7.7-21.5,9.1-27.7c0.5-2.2,0.6-4.4,0.6-6.7
			c0.1-7.5,0-15,0.1-22.4c0-1-0.3-1.5-1.2-1.9c-8-3.7-16.4-5.4-25.1-6.3c-14.3-1.5-28.3,0-42.1,3.4c-3.4,0.8-6.7,1.9-10,2.8
			c-0.8,0.2-1,0.6-1,1.3c0,7.9-0.2,15.8,0.1,23.7c0.3,11.8,5.8,32.6,16.2,38.2c4.4,2.4,9.3,3.4,14.3,3.3c3.1,0,6.2,0,9.3,0
			C3.2,146.8,3.2,146.8,3.2,146.7z"/>
		<path class="st1" d="M3.2,195c12.9,0,23.2-10.4,23.2-23.3c-0.1-12.9-10.5-23.3-23.3-23.2c-12.9,0.1-23.3,10.6-23.1,23.4
			C-20,184.7-9.6,195,3.2,195z"/>
	</g>
	<g>
		<path class="st1" d="M142.2,81.7c4,0,8,0.2,11.9,0c6.9-0.3,12.8-3,17.9-7.6c4.7-4.3,7.7-21.5,9.1-27.7c0.5-2.2,0.6-4.4,0.6-6.7
			c0.1-7.5,0-15,0.1-22.4c0-1-0.3-1.5-1.2-1.9c-8-3.7-16.4-5.4-25.1-6.3c-14.3-1.5-28.3,0-42.1,3.4c-3.4,0.8-6.7,1.9-10,2.8
			c-0.8,0.2-1,0.6-1,1.3c0,7.9-0.2,15.8,0.1,23.7c0.3,11.8,5.8,32.6,16.2,38.2c4.4,2.4,9.3,3.4,14.3,3.3c3.1,0,6.2,0,9.3,0
			C142.2,81.8,142.2,81.7,142.2,81.7z"/>
		<path class="st1" d="M142.2,129.9c12.9,0,23.2-10.4,23.2-23.3c-0.1-12.9-10.5-23.3-23.3-23.2c-12.9,0.1-23.3,10.6-23.1,23.4
			C119,119.7,129.4,130,142.2,129.9z"/>
	</g>
	<g>
		<path class="st1" d="M159-81c4,0,8,0.2,11.9,0c6.9-0.3,12.8-3,17.9-7.6c4.7-4.3,7.7-21.5,9.1-27.7c0.5-2.2,0.6-4.4,0.6-6.7
			c0.1-7.5,0-15,0.1-22.4c0-1-0.3-1.5-1.2-1.9c-8-3.7-16.4-5.4-25.1-6.3c-14.3-1.5-28.3,0-42.1,3.4c-3.4,0.8-6.7,1.9-10,2.8
			c-0.8,0.2-1,0.6-1,1.3c0,7.9-0.2,15.8,0.1,23.7c0.3,11.8,5.8,32.6,16.2,38.2c4.4,2.4,9.3,3.4,14.3,3.3c3.1,0,6.2,0,9.3,0
			C159-80.9,159-81,159-81z"/>
		<path class="st1" d="M159-32.8c12.9,0,23.2-10.4,23.2-23.3c-0.1-12.9-10.5-23.3-23.3-23.2c-12.9,0.1-23.3,10.6-23.1,23.4
			C135.8-43,146.2-32.7,159-32.8z"/>
	</g>
	<path class="st1" d="M-91.8-41.5l-6.4,4.8l7.3,9.5l6.4-4.8L-91.8-41.5z M-77.2-22.4l-6.4,4.8l7.3,9.5l6.4-4.8L-77.2-22.4z
		 M-62.7-3.3L-69,1.6l7.3,9.5l6.4-4.8L-62.7-3.3z M-48.1,15.8l-6.4,4.8l7.3,9.5l6.4-4.8L-48.1,15.8z M-33.6,34.9l-6.4,4.8l7.3,9.5
		l6.4-4.8L-33.6,34.9z M-19,54l-6.4,4.8l7.3,9.5l6.4-4.8L-19,54z"/>
	<path class="st1" d="M-72.9-66.1l-3.3,7.3l10.9,5l3.3-7.3L-72.9-66.1z M-51.1-56.1l-3.3,7.3l10.9,5l3.3-7.3L-51.1-56.1z
		 M-29.3-46.1l-3.3,7.3l10.9,5l3.3-7.3L-29.3-46.1z M-7.5-36.1l-3.3,7.3l10.9,5l3.3-7.3L-7.5-36.1z M14.4-26L11-18.8l10.9,5l3.3-7.3
		L14.4-26z M36.2-16l-3.3,7.3l10.9,5l3.3-7.3L36.2-16z M58-6l-3.3,7.3l10.9,5L68.9-1L58-6z M79.8,4l-3.3,7.3l10.9,5L90.7,9L79.8,4z"
		/>
	<path class="st1" d="M106.7-137.8L95.1-135l1.8,7.8l11.7-2.8L106.7-137.8z M83.4-132.3l-11.7,2.8l1.8,7.8l11.7-2.8L83.4-132.3z
		 M60-126.7l-11.7,2.8l1.8,7.8l11.7-2.8L60-126.7z M36.7-121.2L25-118.4l1.8,7.8l11.7-2.8L36.7-121.2z M13.3-115.6l-11.7,2.8
		l1.8,7.8l11.7-2.8L13.3-115.6z M-10-110.1l-11.7,2.8l1.8,7.8l11.7-2.8L-10-110.1z M-33.4-104.5l-11.7,2.8l1.8,7.8l11.7-2.8
		L-33.4-104.5z M-56.7-99l-11.7,2.8l1.8,7.8l11.7-2.8L-56.7-99z"/>
	<path class="st1" d="M204.8-235.2h-409.5c-16.8,0-30.5,13.7-30.5,30.5v409.5c0,16.8,13.7,30.5,30.5,30.5h409.5
		c16.8,0,30.5-13.7,30.5-30.5v-409.5C235.2-221.6,221.6-235.2,204.8-235.2z M-204.8,214.2c-5.2,0-9.5-4.3-9.5-9.5v-409.5
		c0-5.2,4.3-9.5,9.5-9.5h409.5c5.2,0,9.5,4.3,9.5,9.5v409.5c0,5.2-4.3,9.5-9.5,9.5H-204.8z"/>
</symbol>
<use xlink:href="#Arrow_26"  width="42.7" height="26.3" x="-22.9" y="-13.1" transform="matrix(1.1142 0 0 -1.1212 179.2711 83.6444)" style="overflow:visible;"/>
<use xlink:href="#New_Symbol_3"  width="470.5" height="470.5" x="-235.2" y="-235.2" transform="matrix(0.2891 0 0 -0.2891 76.7333 81)" style="overflow:visible;"/>
</svg>
